# xmcd
#
# Track frame offsets: 
#        150
#        20170
#        37679
#        63236
#        80598
#        105770
#        122622
#        139569
#        156266
#        177868
#        195568
#        217715
#        235562
#        253601
#        269986
#        304273
#
# Disc length: 4306 seconds
#
# Revision: 0
# Processed by: cddbd v1.5.2PL0 Copyright (c) Steve Scherf et al.
# Submitted via: ExactAudioCopy v0.95b3
#
DISCID=cd10d010
DTITLE=Curtis Mayfield  - People Get Ready - disc 3  FLAC
DYEAR=1900
DGENRE=
TTITLE0=Only You Babe
TTITLE1=Party Night
TTITLE2=Mr. Welfare Man
TTITLE3=Show Me Love
TTITLE4=Do Do Wap Is Strong In Here
TTITLE5=You Are, You Are
TTITLE6=Do It All Night
TTITLE7=You're So Good To Me
TTITLE8=Between You Baby and Me
TTITLE9=Love's Sweet Sensation
TTITLE10=Love Me, Love Me Now
TTITLE11=Tripping Out
TTITLE12=She Don't Let Nobody (But Me)
TTITLE13=Baby It's You
TTITLE14=Homeless
TTITLE15=Do Be Down
EXTD=
EXTT0=
EXTT1=
EXTT2=
EXTT3=
EXTT4=
EXTT5=
EXTT6=
EXTT7=
EXTT8=
EXTT9=
EXTT10=
EXTT11=
EXTT12=
EXTT13=
EXTT14=
EXTT15=
PLAYORDER=
